<svg xmlns="http://www.w3.org/2000/svg" width="80.859" height="95.108"><g fill-rule="evenodd" clip-rule="evenodd"><path fill="#4EB148" d="M40.43 95.108c22.27 0 40.43-18.165 40.43-40.434 0-22.266-18.16-40.43-40.43-40.43S0 32.408 0 54.674c0 22.269 18.16 40.434 40.43 40.434z"/><path fill="#FFF" d="M40.43 15.563c21.601 0 39.114 17.51 39.114 39.111 0 21.604-17.514 39.114-39.114 39.114S1.318 76.278 1.318 54.674c0-21.601 17.511-39.111 39.112-39.111z"/><path fill="#FFF" d="M61.715.547h7.008l1.345 67.144h-9.554zm-49.649 0h7.007l1.348 67.144h-9.556z"/><path fill="#4EB148" d="M35.764 79.039h9.315v15.688h-9.315V79.039zm1.318 1.315h6.679V93.65c-1.999.167-4.212.148-6.679-.003V80.354zm-10.566-1.315h6.352v15.356a39.964 39.964 0 0 1-4.049-.983h2.73V80.354h-3.714v12.749c-.44-.146-.882-.296-1.319-.456V79.039zm21.338 0h6.348v13.659c-.435.156-.875.305-1.318.451V80.354h-3.716v13.058h2.873a40.942 40.942 0 0 1-4.187 1.013V79.039zm9.478-3.906h6.348v12.621a45.77 45.77 0 0 1-1.314.888V76.453h-3.717v13.054h2.315c-.785.465-1.592.906-2.408 1.318h-1.224V75.133zm-40.244 0h6.347v15.691h-1.128a41.611 41.611 0 0 1-2.411-1.318h2.225V76.453h-3.715v12.13a38.991 38.991 0 0 1-1.317-.894V75.133zm9.5 0h27.684v1.096H26.588z"/><path fill="#4EB148" d="M9.595 79.039h8.811v1.096H9.595zm52.791 0h8.811v1.096h-8.811zM2.896 67.038h75.148v1.091H2.896zm16.962 4.069h41.143v1.096H19.858z"/><path fill="#4EB148" d="M19.858 71.107h1.096v5.346h-1.096zm40.047 0h1.096v5.346h-1.096zM23.79 39.125h33.279v1.094H23.79zm7.918-9.692h17.446v1.095H31.708z"/><path fill="#4EB148" d="M48.063 29.433h1.091v9.692h-1.091zm-16.355 0h1.095v9.692h-1.095zm-7.918 9.692h1.095V67.08H23.79zm32.188 0h1.092V67.08h-1.092zm-24.27 13.053H32.8V67.08h-1.092zm4.159 0h1.095V67.08h-1.095zm4.016 0h1.094V67.08h-1.094zm4.014 0h1.095V67.08h-1.095zm4.163 0h1.095V67.08H48.06z"/><path fill="#4EB148" d="M31.708 52.178h17.446v1.095H31.708zm24.27-10.508h13.89v1.094h-13.89zm4.321 5.351h9.199v1.095h-9.199zm0 5.353h9.199v1.095h-9.199zm0 5.353h9.199v1.094h-9.199zm0 5.351h9.199v1.096h-9.199zm.538-26.76h8.661v1.095h-8.661zm.249-5.349h8.412v1.09h-8.412zm0-5.352h8.412v1.09h-8.412zm-.189-5.353h8.287v1.094h-8.287zm.603-5.352h7.407v1.095H61.5zm-.414-5.352h7.996v1.095h-7.996zm-1.671-5.352h11.497v1.094H59.415zM61.754 0h7.007v1.094h-7.007z"/><path fill="#4EB148" d="M62.259 0l-1.252 67.081h-1.091L61.163 0zm5.757 0l1.248 67.081h1.093L69.105 0zM31.771 44.335h1.096v3.781h-1.096zm4.096 0h1.095v3.781h-1.095zm4.016 0h1.094v3.781h-1.094zm4.014 0h1.095v3.781h-1.095zm4.038 0h1.093v3.781h-1.093zM10.961 41.67H24.85v1.094H10.961zm.369 5.351h9.193v1.095H11.33zm0 5.353h9.193v1.095H11.33zm0 5.353h9.193v1.094H11.33zm0 5.351h9.193v1.096H11.33zm0-26.76h8.66v1.095h-8.66zm0-5.349h8.408v1.09H11.33zm0-5.352h8.408v1.09H11.33zm.31-5.353h8.287v1.094H11.64zm.276-5.352h7.406v1.095h-7.406zm-.17-5.352h7.992v1.095h-7.992zm.32-9.56h7.007v1.094h-7.007z"/><path fill="#4EB148" d="M18.569 0l1.247 67.081h1.095L19.661 0zm-5.756 0l-1.252 67.081H10.47L11.717 0zm27.07 30.169h1.094v3.781h-1.094zm4.014 5.371h1.095v3.785h-1.095zm-8.03 0h1.095v3.785h-1.095zm4.016 1.89h1.094v2.79h-1.094z"/><path fill="#4EB148" d="M9.865 4.208h11.497v1.094H9.865z"/></g></svg>