<svg xmlns="http://www.w3.org/2000/svg" width="160" height="160" viewBox="0 0 100 100" preserveAspectRatio="xMidYMid" class="uil-default"><path fill="none" d="M0 0h100v100H0z" class="bk"/><rect width="7" height="20" x="46.5" y="40" fill="#28aae1" rx="50" ry="50" transform="translate(0 -28)"><animate attributeName="opacity" from="1" to="0" dur="1s" begin="0s" repeatCount="indefinite"/></rect><rect width="7" height="20" x="46.5" y="40" fill="#28aae1" rx="50" ry="50" transform="rotate(30 102.249 64)"><animate attributeName="opacity" from="1" to="0" dur="1s" begin="0.08333333333333333s" repeatCount="indefinite"/></rect><rect width="7" height="20" x="46.5" y="40" fill="#28aae1" rx="50" ry="50" transform="rotate(60 74.249 64)"><animate attributeName="opacity" from="1" to="0" dur="1s" begin="0.16666666666666666s" repeatCount="indefinite"/></rect><rect width="7" height="20" x="46.5" y="40" fill="#28aae1" rx="50" ry="50" transform="rotate(90 64 64)"><animate attributeName="opacity" from="1" to="0" dur="1s" begin="0.25s" repeatCount="indefinite"/></rect><rect width="7" height="20" x="46.5" y="40" fill="#28aae1" rx="50" ry="50" transform="rotate(120 58.083 64)"><animate attributeName="opacity" from="1" to="0" dur="1s" begin="0.3333333333333333s" repeatCount="indefinite"/></rect><rect width="7" height="20" x="46.5" y="40" fill="#28aae1" rx="50" ry="50" transform="rotate(150 53.751 64)"><animate attributeName="opacity" from="1" to="0" dur="1s" begin="0.4166666666666667s" repeatCount="indefinite"/></rect><rect width="7" height="20" x="46.5" y="40" fill="#28aae1" rx="50" ry="50" transform="rotate(180 50 64)"><animate attributeName="opacity" from="1" to="0" dur="1s" begin="0.5s" repeatCount="indefinite"/></rect><rect width="7" height="20" x="46.5" y="40" fill="#28aae1" rx="50" ry="50" transform="rotate(-150 46.249 64)"><animate attributeName="opacity" from="1" to="0" dur="1s" begin="0.5833333333333334s" repeatCount="indefinite"/></rect><rect width="7" height="20" x="46.5" y="40" fill="#28aae1" rx="50" ry="50" transform="rotate(-120 41.917 64)"><animate attributeName="opacity" from="1" to="0" dur="1s" begin="0.6666666666666666s" repeatCount="indefinite"/></rect><rect width="7" height="20" x="46.5" y="40" fill="#28aae1" rx="50" ry="50" transform="rotate(-90 36 64)"><animate attributeName="opacity" from="1" to="0" dur="1s" begin="0.75s" repeatCount="indefinite"/></rect><rect width="7" height="20" x="46.5" y="40" fill="#28aae1" rx="50" ry="50" transform="rotate(-60 25.751 64)"><animate attributeName="opacity" from="1" to="0" dur="1s" begin="0.8333333333333334s" repeatCount="indefinite"/></rect><rect width="7" height="20" x="46.5" y="40" fill="#28aae1" rx="50" ry="50" transform="rotate(-30 -2.249 64)"><animate attributeName="opacity" from="1" to="0" dur="1s" begin="0.9166666666666666s" repeatCount="indefinite"/></rect></svg>